<svg width="480" height="480" viewBox="0 0 480 480" fill="none" xmlns="http://www.w3.org/2000/svg">
<path d="M240 392C239.2 392 238.32 391.84 237.52 391.6L229.44 388.96C151.52 363.52 112.08 314.48 112.08 243.2V140.64C112.08 137.28 114.16 134.32 117.28 133.12L237.28 88.3999C239.04 87.7599 241.04 87.7599 242.88 88.3999L362.88 133.12C366 134.32 368.08 137.28 368.08 140.64V243.2C368.08 314.48 328.56 363.52 250.72 388.96L242.64 391.6C241.84 391.84 240.96 392 240.16 392H240ZM234.4 373.76L240 375.6L245.6 373.76C316.16 350.72 352 306.8 352 243.2V146.24L240 104.56L128 146.24V243.2C128 306.8 163.76 350.72 234.4 373.76Z" fill="#243AFF"/>
<path d="M240 360C239.12 360 238.24 359.84 237.44 359.6C174.56 338.24 144 300.16 144 242.96V162.08C144 158.8 146 155.84 149.12 154.64L237.12 120.56C238.96 119.84 241.04 119.84 242.88 120.56L330.88 154.64C333.92 155.84 336 158.8 336 162.08V242.96C336 300.08 305.44 338.24 242.56 359.6C241.74 359.894 240.871 360.03 240 360ZM160 167.6V243.04C160 292.4 185.44 324.4 240 343.6C294.56 324.4 320 292.4 320 243.04V167.6L240 136.64L160 167.6Z" fill="#0A0F26"/>
<path d="M224 272C221.92 272 219.92 271.2 218.32 269.68L186.32 237.68C184.824 236.184 183.984 234.156 183.984 232.04C183.984 229.925 184.824 227.896 186.32 226.4C187.816 224.904 189.845 224.064 191.96 224.064C194.075 224.064 196.104 224.904 197.6 226.4L223.92 252.72L282.24 194.4C282.981 193.659 283.86 193.072 284.828 192.671C285.795 192.27 286.833 192.064 287.88 192.064C288.927 192.064 289.965 192.27 290.932 192.671C291.9 193.072 292.779 193.659 293.52 194.4C294.261 195.141 294.848 196.02 295.249 196.988C295.65 197.955 295.856 198.993 295.856 200.04C295.856 201.088 295.65 202.125 295.249 203.092C294.848 204.06 294.261 204.939 293.52 205.68L229.52 269.68C227.92 271.28 225.92 272 223.84 272H224Z" fill="#243AFF"/>
<path d="M39.52 192.56C38.2861 192.551 37.0707 192.26 35.9667 191.709C34.8626 191.158 33.8993 190.362 33.1504 189.382C32.4014 188.401 31.8868 187.262 31.6458 186.052C31.4048 184.842 31.4438 183.593 31.76 182.4C51.84 109.6 109.6 51.8401 182.4 31.8401C193.12 28.8001 204.16 26.6401 215.12 25.4401C219.44 25.0401 223.44 28.0801 223.92 32.4801C224.4 36.8801 221.28 40.8001 216.88 41.2801C206.72 42.4001 196.56 44.4001 186.64 47.2001C119.12 65.7601 65.68 119.2 47.12 186.64C46.16 190.16 42.96 192.48 39.44 192.48L39.52 192.56ZM184.56 448.48C183.84 448.48 183.12 448.4 182.4 448.16C109.52 428.08 51.84 370.4 31.76 297.52C28.72 286.8 26.56 275.76 25.36 264.8C25.24 263.759 25.3272 262.705 25.6167 261.698C25.9063 260.691 26.3923 259.752 27.0468 258.934C27.7013 258.115 28.5113 257.435 29.43 256.932C30.3488 256.428 31.3582 256.111 32.4 256C36.72 255.6 40.72 258.64 41.2 263.04C42.32 273.2 44.32 283.36 47.12 293.28C65.68 360.8 119.12 414.24 186.56 432.8C190.8 434 193.28 438.4 192.16 442.64C191.2 446.16 188 448.48 184.48 448.48H184.56ZM263.92 454.64C259.92 454.64 256.4 451.6 256 447.52C255.88 446.479 255.967 445.425 256.257 444.418C256.546 443.411 257.032 442.472 257.687 441.654C258.341 440.835 259.151 440.155 260.07 439.652C260.989 439.148 261.998 438.831 263.04 438.72C273.2 437.6 283.36 435.6 293.28 432.8C360.8 414.24 414.24 360.8 432.8 293.36C434 289.12 438.4 286.64 442.64 287.76C446.88 288.96 449.36 293.36 448.24 297.6C428.16 370.48 370.48 428.16 297.6 448.24C286.88 451.28 275.84 453.44 264.88 454.64H264H263.92ZM446.64 224.08C442.64 224.08 439.12 221.04 438.72 216.96C437.6 206.8 435.6 196.64 432.8 186.72C414.24 119.2 360.8 65.7601 293.36 47.2001C289.12 46.0001 286.64 41.6001 287.76 37.3601C288.88 33.1201 293.36 30.6401 297.6 31.7601C370.48 51.8401 428.16 109.52 448.24 182.4C451.28 193.12 453.44 204.16 454.64 215.12C454.76 216.161 454.673 217.215 454.383 218.222C454.094 219.229 453.608 220.169 452.953 220.987C452.299 221.805 451.489 222.485 450.57 222.989C449.651 223.492 448.642 223.809 447.6 223.92H446.72L446.64 224.08Z" fill="#0A0F26"/>
<path d="M240 64C222.32 64 208 49.68 208 32C208 14.32 222.32 0 240 0C257.68 0 272 14.32 272 32C272 49.68 257.68 64 240 64ZM240 16C231.2 16 224 23.2 224 32C224 40.8 231.2 48 240 48C248.8 48 256 40.8 256 32C256 23.2 248.8 16 240 16ZM240 480C222.32 480 208 465.68 208 448C208 430.32 222.32 416 240 416C257.68 416 272 430.32 272 448C272 465.68 257.68 480 240 480ZM240 432C231.2 432 224 439.2 224 448C224 456.8 231.2 464 240 464C248.8 464 256 456.8 256 448C256 439.2 248.8 432 240 432ZM448 272C430.32 272 416 257.68 416 240C416 222.32 430.32 208 448 208C465.68 208 480 222.32 480 240C480 257.68 465.68 272 448 272ZM448 224C439.2 224 432 231.2 432 240C432 248.8 439.2 256 448 256C456.8 256 464 248.8 464 240C464 231.2 456.8 224 448 224ZM32 272C14.32 272 0 257.68 0 240C0 222.32 14.32 208 32 208C49.68 208 64 222.32 64 240C64 257.68 49.68 272 32 272ZM32 224C23.2 224 16 231.2 16 240C16 248.8 23.2 256 32 256C40.8 256 48 248.8 48 240C48 231.2 40.8 224 32 224Z" fill="#243AFF"/>
</svg>
