<svg width="93" height="101" viewBox="0 0 93 101" fill="none" xmlns="http://www.w3.org/2000/svg">
<mask id="mask0_76_202" style="mask-type:alpha" maskUnits="userSpaceOnUse" x="0" y="0" width="93" height="101">
<path d="M28.0903 12.9217L41.9748 1.27419C44.4004 -0.424739 47.63 -0.424718 50.0556 1.27419L63.9412 12.9217H75.177C80.6221 12.9217 85.0363 17.3359 85.0363 22.781V30.6167L91.2757 35.8504C91.7543 36.2518 92.0308 36.8444 92.0308 37.469V93.2492C92.0308 97.1386 88.8779 100.292 84.9885 100.292H7.04234C3.15324 100.292 0 97.1386 0 93.2492L0.00343864 37.4689C0.00343864 36.8444 0.279905 36.2518 0.757877 35.8504L6.9942 30.6189V22.781C6.9942 17.3359 11.408 12.9217 16.8535 12.9217H28.0903Z" fill="#EBE9FF"/>
</mask>
<g mask="url(#mask0_76_202)">
<path d="M39.7259 4.23324L3.12751 33.9473C1.15119 35.5519 0.00348214 37.9619 0.00333445 40.5076L0.000274658 93.2492C0.000274658 97.1386 3.15324 100.292 7.04262 100.292H84.9888C88.8782 100.292 92.0309 97.1386 92.0309 93.2492V40.5177C92.0309 37.9662 90.8782 35.5514 88.8943 33.9469L52.1403 4.22151C48.5188 1.29264 43.3418 1.29753 39.7259 4.23324Z" fill="#5772D2"/>
<path d="M75.1774 12.9217C80.6225 12.9217 85.0366 17.3359 85.0366 22.781L85.0366 98.8831C85.0366 99.661 84.406 100.292 83.6281 100.292L8.40297 100.292C7.62509 100.292 6.9945 99.661 6.9945 98.8831L6.9945 22.781C6.9945 17.3359 11.4087 12.9217 16.8538 12.9217L75.1774 12.9217Z" fill="#F9F9FF"/>
<rect x="17.6238" y="46.8321" width="44.4953" height="6.42546" rx="3.21273" fill="#7795FF"/>
<rect x="17.6237" y="24.9756" width="44.0601" height="6.42546" rx="3.21273" fill="#7795FF"/>
<rect x="17.6238" y="35.9038" width="33.4123" height="6.42546" rx="3.21273" fill="#7795FF"/>
<path d="M35.4431 68.1807L-0.420929 39.2383L-0.171976 97.4066L35.4431 68.1807Z" fill="#7795FF"/>
<path d="M56.7715 68.6905L93.1028 39.6563L92.5989 94.9801L56.7715 68.6905Z" fill="#7795FF"/>
<path d="M-15.217 98.5313L38.0724 61.2061C42.9235 57.8083 49.382 57.8083 54.233 61.2061L118.496 106.218C119.624 107.007 119.065 108.78 117.688 108.78L-11.9849 108.78C-17.4923 108.78 -19.728 101.691 -15.217 98.5313Z" fill="#243AFF"/>
</g>
</svg>
