<svg width="106" height="103" viewBox="0 0 106 103" fill="none" xmlns="http://www.w3.org/2000/svg">
<circle cx="52.5238" cy="50.9999" r="36.4286" stroke="url(#paint0_linear_623_194)" stroke-width="5"/>
<path opacity="0.3" fill-rule="evenodd" clip-rule="evenodd" d="M35.5068 26.7005C36.9137 25.7136 38.4107 24.8454 39.9833 24.1108L42.1857 28.8259C40.8903 29.431 39.6561 30.1466 38.4954 30.9609L35.5068 26.7005Z" fill="#3CE1CD"/>
<path opacity="0.4" fill-rule="evenodd" clip-rule="evenodd" d="M25.6347 38.4594C26.3693 36.8868 27.2374 35.3898 28.2244 33.9829L32.4847 36.9715C31.6705 38.1322 30.9549 39.3664 30.3498 40.6618L25.6347 38.4594Z" fill="#3CE1CD"/>
<path opacity="0.6" fill-rule="evenodd" clip-rule="evenodd" d="M28.2244 68.0168C27.2374 66.6099 26.3693 65.1129 25.6347 63.5403L30.3498 61.3379C30.9549 62.6334 31.6705 63.8675 32.4847 65.0282L28.2244 68.0168Z" fill="#3CE1CD"/>
<path opacity="0.5" fill-rule="evenodd" clip-rule="evenodd" d="M22.8607 50.9999C22.8607 50.1298 22.8982 49.2678 22.9718 48.4155L28.1566 48.8635C28.0958 49.567 28.0647 50.2795 28.0647 50.9999C28.0647 51.7204 28.0958 52.4329 28.1566 53.1363L22.9718 53.5843C22.8982 52.7321 22.8607 51.8701 22.8607 50.9999Z" fill="#3CE1CD"/>
<path opacity="0.7" fill-rule="evenodd" clip-rule="evenodd" d="M39.9833 77.8891C38.4107 77.1545 36.9137 76.2863 35.5068 75.2994L38.4954 71.0391C39.6561 71.8533 40.8903 72.5689 42.1857 73.174L39.9833 77.8891Z" fill="#3CE1CD"/>
<path opacity="0.8" fill-rule="evenodd" clip-rule="evenodd" d="M52.5239 80.6631C51.6538 80.6631 50.7918 80.6256 49.9395 80.5519L50.3875 75.3672C51.091 75.428 51.8035 75.459 52.5239 75.459C53.2443 75.459 53.9569 75.428 54.6603 75.3672L55.1083 80.5519C54.2561 80.6256 53.3941 80.6631 52.5239 80.6631Z" fill="#3CE1CD"/>
<path opacity="0.9" fill-rule="evenodd" clip-rule="evenodd" d="M69.5409 75.2994C68.1341 76.2863 66.637 77.1545 65.0644 77.8891L62.862 73.174C64.1575 72.5689 65.3916 71.8533 66.5523 71.0391L69.5409 75.2994Z" fill="#3CE1CD"/>
<path fill-rule="evenodd" clip-rule="evenodd" d="M79.4131 63.5403C78.6785 65.1129 77.8103 66.6099 76.8234 68.0168L72.563 65.0282C73.3773 63.8675 74.0929 62.6334 74.698 61.3379L79.4131 63.5403Z" fill="#3CE1CD"/>
<path fill-rule="evenodd" clip-rule="evenodd" d="M52.5238 45.7959C55.398 45.7959 57.7279 48.1259 57.7279 51C57.7279 53.8742 55.398 56.2041 52.5238 56.2041C49.6497 56.2041 47.3198 53.8742 47.3198 51C47.3198 48.1259 49.6497 45.7959 52.5238 45.7959Z" stroke="white" stroke-width="3"/>
<path fill-rule="evenodd" clip-rule="evenodd" d="M45.2382 0C44.0885 0 43.1566 0.931977 43.1566 2.08163V8.32653H49.4014V14.051H55.6463V8.32653H61.8912V2.08163C61.8912 0.931979 60.9593 0 59.8096 0H45.2382Z" fill="#243AFF"/>
<path d="M57.7279 50.9999H79.5851C79.5851 38.5101 70.2177 24.4591 52.5239 23.9387" stroke="white" stroke-width="3"/>
<path d="M11.4107 20.8164C5.19565 29.2677 1.52386 39.7051 1.52386 51.0001C1.52386 75.0443 18.1628 95.2023 40.5545 100.588H1.52386M93.637 20.8164C99.8521 29.2677 103.524 39.7051 103.524 51.0001C103.524 75.0443 86.8849 95.2023 64.4933 100.588H103.524" stroke="white" stroke-width="3" stroke-linecap="round" stroke-linejoin="round"/>
<path fill-rule="evenodd" clip-rule="evenodd" d="M15.0545 21.8571C12.1803 21.8571 9.85038 19.5272 9.85038 16.6531C9.85038 13.7789 12.1803 11.449 15.0545 11.449C17.9286 11.449 20.2585 13.7789 20.2585 16.6531C20.2585 19.5272 17.9286 21.8571 15.0545 21.8571Z" stroke="white" stroke-width="3"/>
<path fill-rule="evenodd" clip-rule="evenodd" d="M89.9933 11.449C92.8674 11.449 95.1973 13.779 95.1973 16.6531C95.1973 19.5272 92.8674 21.8572 89.9933 21.8572C87.1191 21.8572 84.7892 19.5272 84.7892 16.6531C84.7892 13.779 87.1191 11.449 89.9933 11.449Z" stroke="white" stroke-width="3"/>
<defs>
<linearGradient id="paint0_linear_623_194" x1="52.5238" y1="14.5713" x2="52.5238" y2="87.4284" gradientUnits="userSpaceOnUse">
<stop stop-color="#243AFF"/>
<stop offset="1" stop-color="#243AFF" stop-opacity="0"/>
</linearGradient>
</defs>
</svg>
