<svg width="256" height="256" viewBox="0 0 256 256" fill="none" xmlns="http://www.w3.org/2000/svg">
<g clip-path="url(#clip0_77_350)">
<path d="M128.017 6.63702C194.45 6.63702 248.483 60.6884 248.483 127.122C248.483 193.555 194.45 247.606 128.017 247.606C61.565 247.606 7.51373 193.555 7.51373 127.122C7.51373 60.6884 61.565 6.63702 128.017 6.63702ZM26.0592 237.977C29.1915 237.977 31.7309 240.559 31.7309 243.691C31.7309 246.823 29.1915 249.363 26.0592 249.363C22.9272 249.363 20.3454 246.823 20.3454 243.691C20.3454 240.559 22.9272 237.977 26.0592 237.977ZM19.351 225.736C21.3446 225.736 22.9609 227.379 22.9609 229.372C22.9609 231.366 21.3446 232.982 19.351 232.982C17.3576 232.982 15.7143 231.366 15.7143 229.372C15.7143 227.379 17.3576 225.736 19.351 225.736ZM228.982 20.0551C232.05 19.4228 235.058 21.4388 235.69 24.5064C236.322 27.5739 234.348 30.5739 231.28 31.2061C228.213 31.8383 225.171 29.8721 224.539 26.8046C223.907 23.737 225.914 20.6873 228.982 20.0551ZM219.941 9.41925C221.893 9.01683 223.808 10.3 224.21 12.2524C224.613 14.2048 223.356 16.1142 221.403 16.5166C219.451 16.919 217.515 15.6676 217.113 13.7151C216.711 11.7627 217.988 9.82163 219.941 9.41925Z" fill="#D6DCE8"/>
<path d="M240.606 58.4376V195.408C240.606 203.119 234.341 209.384 226.648 209.384H29.3682C21.6572 209.384 15.3919 203.119 15.3919 195.408V58.4376C15.3919 50.7266 21.6572 44.4614 29.3682 44.4614H226.648C234.341 44.4614 240.606 50.7266 240.606 58.4376Z" fill="#F9FAFD"/>
<path d="M240.605 58.4269V72.848H15.3916V58.4269C15.3916 50.7344 21.6568 44.4692 29.3679 44.4692H226.648C234.34 44.4692 240.605 50.7344 240.605 58.4269Z" fill="url(#paint0_linear_77_350)"/>
<path d="M46.9409 58.6592C46.9409 60.582 45.3883 62.1346 43.4774 62.1346C41.5545 62.1346 40.0019 60.582 40.0019 58.6592C40.0019 56.7363 41.5545 55.1837 43.4774 55.1837C45.3883 55.1837 46.9409 56.7363 46.9409 58.6592ZM35.106 58.6592C35.106 60.582 33.5534 62.1346 31.6425 62.1346C29.7196 62.1346 28.167 60.582 28.167 58.6592C28.167 56.7363 29.7196 55.1837 31.6425 55.1837C33.5534 55.1837 35.106 56.7363 35.106 58.6592ZM58.7757 58.6592C58.7757 60.582 57.2231 62.1346 55.3122 62.1346C53.3893 62.1346 51.8367 60.582 51.8367 58.6592C51.8367 56.7363 53.3893 55.1837 55.3122 55.1837C57.2231 55.1837 58.7757 56.7363 58.7757 58.6592Z" fill="#F9FAFD"/>
<path d="M218.505 246.341C213.732 250.693 206.338 250.283 202.03 245.505L168.574 208.706C167.833 207.889 167.471 206.862 167.528 205.779C167.566 204.677 168.041 203.689 168.859 202.967L168.897 202.929L158.692 191.66L160.402 190.424C165.847 186.451 169.458 181.99 169.904 181.531L180.09 192.8L180.128 192.762C181.8 191.261 184.365 191.394 185.867 193.047L219.342 229.866C223.628 234.62 223.351 241.973 218.505 246.341Z" fill="url(#paint1_linear_77_350)"/>
<path d="M171.424 105.537C149.361 81.1743 111.583 79.293 87.1824 101.337C62.7219 123.474 60.9074 161.129 82.9637 185.541C94.7269 198.558 110.88 205.285 127.184 205.285C178.783 205.285 206.077 143.82 171.424 105.537ZM125.113 186.909C114.072 186.358 103.886 181.531 96.4751 173.322C81.1583 156.389 82.4696 130.146 99.4017 114.848C116.334 99.5083 142.557 100.768 157.894 117.756C182.706 145.201 161.602 188.793 125.113 186.909Z" fill="url(#paint2_linear_77_350)"/>
<path d="M147.587 151.712C147.587 152.243 147.142 152.688 146.611 152.688C146.059 152.688 145.614 152.243 145.614 151.712C145.614 149.697 144.277 147.999 142.453 147.427C142.474 147.617 142.495 147.83 142.495 148.021C142.495 150.821 141.986 153.474 141.094 155.871C143.81 156.465 145.847 158.884 145.847 161.77C145.847 162.3 145.402 162.746 144.871 162.746C144.32 162.746 143.874 162.3 143.874 161.77C143.874 159.69 142.304 157.993 140.267 157.759C137.424 163.616 132.077 167.562 125.945 167.562C119.834 167.562 114.53 163.658 111.666 157.866C109.926 158.311 108.632 159.881 108.632 161.77C108.632 162.3 108.186 162.746 107.634 162.746C107.104 162.746 106.658 162.3 106.658 161.77C106.658 159.075 108.42 156.805 110.859 156.041C109.178 151.609 109.419 147.942 109.395 147.681C107.932 148.424 106.892 149.93 106.892 151.712C106.892 152.243 106.446 152.688 105.916 152.688C105.364 152.688 104.919 152.243 104.919 151.712C104.919 148.784 106.871 146.302 109.544 145.496C109.883 142.377 110.838 139.47 112.281 136.987C109.694 136.391 106.892 138.47 106.892 141.401C106.892 141.952 106.446 142.398 105.916 142.398C105.364 142.398 104.919 141.952 104.919 141.401C104.919 136.948 109.33 133.882 113.427 135.248C114.87 133.296 116.652 131.662 118.646 130.474C118.289 128.319 119.331 125.402 121.702 123.705C121.023 122.666 119.877 121.987 118.54 121.987C118.01 121.987 117.564 121.541 117.564 120.989C117.564 120.459 118.01 120.013 118.54 120.013C120.62 120.013 122.444 121.138 123.463 122.793C124.96 122.252 126.748 122.203 128.428 122.793C129.425 121.138 131.25 120.013 133.329 120.013C133.881 120.013 134.326 120.459 134.326 120.989C134.326 121.541 133.881 121.987 133.329 121.987C132.013 121.987 130.846 122.666 130.168 123.705C132.586 125.418 133.584 128.308 133.223 130.474C132.989 130.346 132.756 130.219 132.501 130.092C134.878 131.301 136.936 133.147 138.591 135.439C139.355 135.099 140.203 134.929 141.116 134.929C144.68 134.929 147.587 137.836 147.587 141.401C147.587 141.952 147.142 142.398 146.611 142.398C146.059 142.398 145.614 141.952 145.614 141.401C145.614 138.456 142.755 136.137 139.694 137.157C141.052 139.555 141.965 142.334 142.304 145.326C145.317 145.899 147.587 148.551 147.587 151.712Z" fill="url(#paint3_linear_77_350)"/>
<path d="M125.677 158.659C124.892 158.659 124.255 158.022 124.255 157.236V139.876C124.255 139.091 124.892 138.454 125.677 138.454C126.462 138.454 127.099 139.091 127.099 139.876V157.236C127.099 158.022 126.462 158.659 125.677 158.659Z" fill="#F9FAFD"/>
<path d="M188.264 105.302C187.616 105.302 186.983 104.969 186.629 104.37C186.097 103.468 186.396 102.305 187.297 101.773L199.338 94.6642C200.244 94.1327 201.405 94.4327 201.936 95.3336C202.468 96.2355 202.17 97.3984 201.268 97.9308L189.227 105.039C188.923 105.218 188.592 105.302 188.264 105.302ZM180.21 99.2466C180.053 99.2466 179.894 99.2271 179.736 99.1864C178.721 98.9253 178.11 97.892 178.371 96.8771L181.858 83.3364C182.121 82.3216 183.17 81.7133 184.168 81.9734C185.183 82.2346 185.794 83.2679 185.533 84.2827L182.046 97.8234C181.825 98.679 181.055 99.2466 180.21 99.2466ZM203.216 118.766C203.058 118.766 202.899 118.747 202.742 118.706L189.201 115.219C188.186 114.958 187.575 113.924 187.836 112.91C188.097 111.896 189.146 111.285 190.146 111.547L203.686 115.034C204.701 115.295 205.312 116.328 205.051 117.343C204.831 118.198 204.06 118.766 203.216 118.766Z" fill="#FF6969"/>
<path d="M19.9427 12.9733C23.5799 12.9733 26.5286 15.9712 26.5286 19.6081C26.5286 23.245 23.5799 26.194 19.9427 26.194C16.3059 26.194 13.3079 23.245 13.3079 19.6081C13.3079 15.9712 16.3059 12.9733 19.9427 12.9733Z" fill="#D6DCE8"/>
</g>
<defs>
<linearGradient id="paint0_linear_77_350" x1="127.998" y1="71.0106" x2="127.998" y2="49.5066" gradientUnits="userSpaceOnUse">
<stop stop-color="#FF6969"/>
<stop offset="1" stop-color="#D83131"/>
</linearGradient>
<linearGradient id="paint1_linear_77_350" x1="158.692" y1="215.448" x2="222.36" y2="215.448" gradientUnits="userSpaceOnUse">
<stop stop-color="#FF6969"/>
<stop offset="1" stop-color="#C53333"/>
</linearGradient>
<linearGradient id="paint2_linear_77_350" x1="67.5556" y1="145.622" x2="186.914" y2="145.622" gradientUnits="userSpaceOnUse">
<stop stop-color="#FF6969"/>
<stop offset="1" stop-color="#DC3C3C"/>
</linearGradient>
<linearGradient id="paint3_linear_77_350" x1="104.918" y1="143.789" x2="147.587" y2="143.789" gradientUnits="userSpaceOnUse">
<stop stop-color="#DA3535"/>
<stop offset="1" stop-color="#C22929"/>
</linearGradient>
<clipPath id="clip0_77_350">
<rect width="256" height="256" fill="white"/>
</clipPath>
</defs>
</svg>
