<svg width="38" height="38" viewBox="0 0 38 38" fill="none" xmlns="http://www.w3.org/2000/svg">
<path fill-rule="evenodd" clip-rule="evenodd" d="M16.4475 5.14583H21.5526C23.2707 5.1458 24.6658 5.14578 25.7881 5.27998C26.9582 5.4199 27.963 5.71772 28.8412 6.40336C29.7193 7.089 30.252 7.9916 30.6715 9.09283C31.0739 10.1491 31.4122 11.5025 31.8289 13.1694L32.5939 16.2292H34.8334C35.4892 16.2292 36.0209 16.7608 36.0209 17.4167C36.0209 18.0725 35.4892 18.6042 34.8334 18.6042H31.6915C31.6743 18.6045 31.6572 18.6045 31.6401 18.6042H6.35997C6.34288 18.6045 6.32572 18.6045 6.30852 18.6042H3.16669C2.51085 18.6042 1.97919 18.0725 1.97919 17.4167C1.97919 16.7608 2.51085 16.2292 3.16669 16.2292H5.40618L6.17113 13.1694C6.58783 11.5025 6.92615 10.1491 7.32855 9.09283C7.74808 7.9916 8.28071 7.089 9.15886 6.40336C10.037 5.71772 11.0419 5.4199 12.212 5.27998C13.3343 5.14578 14.7293 5.1458 16.4475 5.14583ZM7.85428 16.2292H30.1458L29.5428 13.8173C29.1038 12.0612 28.798 10.8464 28.4521 9.93835C28.1175 9.06012 27.7899 8.59573 27.3796 8.27535C26.9692 7.95496 26.4393 7.74977 25.5061 7.63818C24.5412 7.5228 23.2885 7.52083 21.4785 7.52083H16.5216C14.7115 7.52083 13.4588 7.5228 12.4939 7.63818C11.5608 7.74977 11.0308 7.95496 10.6205 8.27535C10.2101 8.59573 9.88252 9.06012 9.54794 9.93835C9.20199 10.8464 8.89625 12.0612 8.45725 13.8173L7.85428 16.2292ZM10.2917 23.3542C7.88695 23.3542 5.93752 25.3036 5.93752 27.7083C5.93752 30.1131 7.88695 32.0625 10.2917 32.0625C12.6964 32.0625 14.6459 30.1131 14.6459 27.7083C14.6459 25.3036 12.6964 23.3542 10.2917 23.3542ZM3.56252 27.7083C3.56252 23.9919 6.57527 20.9792 10.2917 20.9792C13.3917 20.9792 16.0021 23.0754 16.7827 25.9277C18.205 25.355 19.7951 25.355 21.2173 25.9277C21.998 23.0754 24.6084 20.9792 27.7084 20.9792C31.4248 20.9792 34.4375 23.9919 34.4375 27.7083C34.4375 31.4247 31.4248 34.4375 27.7084 34.4375C24.2471 34.4375 21.3962 31.8243 21.0211 28.4632L20.5932 28.2493C19.5903 27.7478 18.4098 27.7478 17.4068 28.2493L16.979 28.4632C16.6038 31.8243 13.7529 34.4375 10.2917 34.4375C6.57527 34.4375 3.56252 31.4247 3.56252 27.7083ZM27.7084 23.3542C25.3036 23.3542 23.3542 25.3036 23.3542 27.7083C23.3542 30.1131 25.3036 32.0625 27.7084 32.0625C30.1131 32.0625 32.0625 30.1131 32.0625 27.7083C32.0625 25.3036 30.1131 23.3542 27.7084 23.3542Z" fill="white"/>
</svg>
