<svg width="38" height="38" viewBox="0 0 38 38" fill="none" xmlns="http://www.w3.org/2000/svg">
<path d="M14.25 25.3333C14.25 26.2078 13.5411 26.9167 12.6667 26.9167C11.7922 26.9167 11.0834 26.2078 11.0834 25.3333C11.0834 24.4589 11.7922 23.75 12.6667 23.75C13.5411 23.75 14.25 24.4589 14.25 25.3333Z" fill="#FEFEFF"/>
<path d="M20.5834 25.3333C20.5834 26.2078 19.8745 26.9167 19 26.9167C18.1256 26.9167 17.4167 26.2078 17.4167 25.3333C17.4167 24.4589 18.1256 23.75 19 23.75C19.8745 23.75 20.5834 24.4589 20.5834 25.3333Z" fill="#FEFEFF"/>
<path d="M25.3334 26.9167C26.2078 26.9167 26.9167 26.2078 26.9167 25.3333C26.9167 24.4589 26.2078 23.75 25.3334 23.75C24.4589 23.75 23.75 24.4589 23.75 25.3333C23.75 26.2078 24.4589 26.9167 25.3334 26.9167Z" fill="#FEFEFF"/>
<path fill-rule="evenodd" clip-rule="evenodd" d="M8.31252 12.6667V14.7294C7.95337 14.7546 7.61487 14.7875 7.29642 14.8303C5.87125 15.0219 4.67128 15.4318 3.71824 16.3849C2.76521 17.3379 2.35529 18.5379 2.16368 19.9631C1.97913 21.3358 1.97916 23.0811 1.97919 25.2464V25.4202C1.97916 27.5856 1.97913 29.3309 2.16368 30.7036C2.35529 32.1288 2.76521 33.3287 3.71824 34.2818C4.67128 35.2348 5.87125 35.6447 7.29642 35.8363C8.66912 36.0209 10.4145 36.0209 12.5798 36.0208H25.4202C27.5856 36.0209 29.3309 36.0209 30.7036 35.8363C32.1288 35.6447 33.3288 35.2348 34.2818 34.2818C35.2348 33.3287 35.6448 32.1288 35.8364 30.7036C36.0209 29.3309 36.0209 27.5856 36.0209 25.4202V25.2465C36.0209 23.0811 36.0209 21.3358 35.8364 19.9631C35.6448 18.5379 35.2348 17.3379 34.2818 16.3849C33.3288 15.4318 32.1288 15.0219 30.7036 14.8303C30.3852 14.7875 30.0467 14.7546 29.6875 14.7294V12.6667C29.6875 6.76412 24.9026 1.97916 19 1.97916C13.0975 1.97916 8.31252 6.76412 8.31252 12.6667ZM19 4.35416C14.4092 4.35416 10.6875 8.0758 10.6875 12.6667V14.6513C11.2789 14.6458 11.9091 14.6458 12.5796 14.6458H25.4202C26.0907 14.6458 26.7212 14.6458 27.3125 14.6513V12.6667C27.3125 8.0758 23.5909 4.35416 19 4.35416ZM7.61288 17.1841C6.45107 17.3403 5.83583 17.6261 5.39762 18.0643C4.95941 18.5025 4.67371 19.1177 4.51751 20.2795C4.35671 21.4755 4.35419 23.0606 4.35419 25.3333C4.35419 27.6061 4.35671 29.1912 4.51751 30.3871C4.67371 31.549 4.95941 32.1642 5.39762 32.6024C5.83583 33.0406 6.45107 33.3263 7.61288 33.4825C8.80885 33.6433 10.3939 33.6458 12.6667 33.6458H25.3334C27.6061 33.6458 29.1912 33.6433 30.3872 33.4825C31.549 33.3263 32.1642 33.0406 32.6024 32.6024C33.0406 32.1642 33.3263 31.549 33.4825 30.3871C33.6433 29.1912 33.6459 27.6061 33.6459 25.3333C33.6459 23.0606 33.6433 21.4755 33.4825 20.2795C33.3263 19.1177 33.0406 18.5025 32.6024 18.0643C32.1642 17.6261 31.549 17.3403 30.3872 17.1841C29.1912 17.0234 27.6061 17.0208 25.3334 17.0208H12.6667C10.3939 17.0208 8.80885 17.0234 7.61288 17.1841Z" fill="#FEFEFF"/>
</svg>
