<svg width="38" height="38" viewBox="0 0 38 38" fill="none" xmlns="http://www.w3.org/2000/svg">
<path fill-rule="evenodd" clip-rule="evenodd" d="M15.744 1.97917L15.8334 1.97917C16.4892 1.97917 17.0209 2.51083 17.0209 3.16667C17.0209 3.82251 16.4892 4.35417 15.8334 4.35417C12.8142 4.35417 10.6693 4.35669 9.0422 4.57546C7.44922 4.78963 6.53145 5.19127 5.86137 5.86135C5.19129 6.53143 4.78964 7.44921 4.57547 9.04218C4.35671 10.6693 4.35419 12.8142 4.35419 15.8333C4.35419 16.4892 3.82253 17.0208 3.16669 17.0208C2.51085 17.0208 1.97919 16.4892 1.97919 15.8333L1.97919 15.744C1.97916 12.8342 1.97914 10.5295 2.22165 8.72572C2.47123 6.86938 2.99708 5.36688 4.18199 4.18197C5.3669 2.99707 6.8694 2.47121 8.72574 2.22164C10.5295 1.97913 12.8342 1.97915 15.744 1.97917ZM28.9578 4.57546C27.3307 4.35669 25.1858 4.35417 22.1667 4.35417C21.5109 4.35417 20.9792 3.82251 20.9792 3.16667C20.9792 2.51083 21.5109 1.97917 22.1667 1.97917L22.256 1.97917C25.1658 1.97915 27.4706 1.97913 29.2743 2.22164C31.1306 2.47121 32.6331 2.99707 33.8181 4.18197C35.003 5.36688 35.5288 6.86938 35.7784 8.72572C36.0209 10.5295 36.0209 12.8342 36.0209 15.744V15.8333C36.0209 16.4892 35.4892 17.0208 34.8334 17.0208C34.1775 17.0208 33.6459 16.4892 33.6459 15.8333C33.6459 12.8142 33.6433 10.6693 33.4246 9.04218C33.2104 7.44921 32.8088 6.53143 32.1387 5.86135C31.4686 5.19127 30.5508 4.78963 28.9578 4.57546ZM15.751 7.52084H22.249C23.6716 7.52079 24.8579 7.52075 25.7996 7.64737C26.7936 7.78101 27.6911 8.07498 28.4122 8.79615C29.1334 9.51731 29.4274 10.4147 29.561 11.4087C29.6876 12.3505 29.6876 13.5368 29.6875 14.9593V15.7604C30.4849 16.0992 31.1007 16.4285 31.5454 16.6953C31.8207 16.8605 32.0302 17.0016 32.1763 17.106C32.2494 17.1581 32.3066 17.2011 32.3482 17.2333C32.369 17.2494 32.386 17.2629 32.3991 17.2734L32.4159 17.287L32.4221 17.2921L32.4247 17.2942C32.4252 17.2947 32.4269 17.2961 31.6667 18.2083L32.4269 17.2961C32.9307 17.7159 32.9988 18.4647 32.579 18.9686C32.1606 19.4706 31.4156 19.54 30.9119 19.1251L30.8955 19.1122C30.8771 19.098 30.844 19.073 30.7959 19.0386C30.6995 18.9698 30.5429 18.8635 30.3234 18.7318C29.8848 18.4686 29.1943 18.1034 28.2321 17.7334C26.3105 16.9943 23.2884 16.2292 19 16.2292C14.7117 16.2292 11.6896 16.9943 9.76798 17.7334C8.80575 18.1034 8.11529 18.4686 7.67661 18.7318C7.45718 18.8635 7.30052 18.9698 7.20417 19.0386C7.156 19.073 7.1229 19.098 7.10456 19.1122L7.08814 19.1251C6.58438 19.54 5.83944 19.4706 5.42109 18.9686C5.00123 18.4647 5.06931 17.7159 5.57314 17.2961L6.33335 18.2083C5.57314 17.2961 5.5726 17.2965 5.57314 17.2961L5.57536 17.2942L5.57794 17.2921L5.58417 17.287L5.60095 17.2734C5.61405 17.2629 5.631 17.2494 5.65183 17.2333C5.69349 17.2011 5.75068 17.1581 5.82373 17.106C5.96984 17.0016 6.17932 16.8605 6.45468 16.6953C6.89933 16.4285 7.51517 16.0992 8.31252 15.7604L8.31252 14.9593C8.31247 13.5367 8.31243 12.3505 8.43905 11.4087C8.57269 10.4147 8.86667 9.51731 9.58783 8.79614C10.309 8.07498 11.2064 7.78101 12.2004 7.64737C13.1422 7.52075 14.3284 7.52079 15.751 7.52084ZM10.6875 14.9252C12.77 14.3273 15.5187 13.8542 19 13.8542C22.4814 13.8542 25.2301 14.3273 27.3125 14.9252C27.3123 13.4629 27.3074 12.4704 27.2072 11.7252C27.1089 10.9946 26.9392 10.6819 26.7328 10.4755C26.5265 10.2692 26.2138 10.0994 25.4832 10.0012C24.7183 9.89836 23.693 9.89584 22.1667 9.89584H15.8334C14.307 9.89584 13.2817 9.89836 12.5169 10.0012C11.7862 10.0994 11.4735 10.2692 11.2672 10.4755C11.0609 10.6819 10.8911 10.9946 10.7929 11.7252C10.6927 12.4704 10.6877 13.4629 10.6875 14.9252ZM3.16669 20.9792C3.82253 20.9792 4.35419 21.5108 4.35419 22.1667C4.35419 25.1858 4.35671 27.3307 4.57547 28.9578C4.78964 30.5508 5.19129 31.4686 5.86137 32.1387C6.53145 32.8087 7.44922 33.2104 9.0422 33.4246C10.6693 33.6433 12.8142 33.6458 15.8334 33.6458C16.4892 33.6458 17.0209 34.1775 17.0209 34.8333C17.0209 35.4892 16.4892 36.0208 15.8334 36.0208H15.744C12.8342 36.0209 10.5295 36.0209 8.72573 35.7784C6.8694 35.5288 5.3669 35.0029 4.18199 33.818C2.99708 32.6331 2.47123 31.1306 2.22165 29.2743C1.97914 27.4705 1.97916 25.1658 1.97919 22.256L1.97919 22.1667C1.97919 21.5108 2.51085 20.9792 3.16669 20.9792ZM9.50002 20.9792C10.1559 20.9792 10.6875 21.5108 10.6875 22.1667V22.9583C10.6875 24.4847 10.69 25.51 10.7929 26.2748C10.8911 27.0055 11.0609 27.3182 11.2672 27.5245C11.4735 27.7308 11.7862 27.9006 12.5169 27.9988C13.2817 28.1017 14.307 28.1042 15.8334 28.1042H22.1667C23.693 28.1042 24.7183 28.1017 25.4832 27.9988C26.2138 27.9006 26.5265 27.7308 26.7328 27.5245C26.9392 27.3182 27.1089 27.0054 27.2072 26.2748C27.31 25.51 27.3125 24.4847 27.3125 22.9583V22.1667C27.3125 21.5108 27.8442 20.9792 28.5 20.9792C29.1559 20.9792 29.6875 21.5108 29.6875 22.1667V23.0407C29.6876 24.4633 29.6876 25.6495 29.561 26.5913C29.4274 27.5853 29.1334 28.4827 28.4122 29.2039C27.6911 29.925 26.7936 30.219 25.7996 30.3526C24.8579 30.4793 23.6716 30.4792 22.249 30.4792H15.751C14.3284 30.4792 13.1422 30.4793 12.2004 30.3526C11.2064 30.219 10.309 29.925 9.58783 29.2039C8.86667 28.4827 8.57269 27.5853 8.43905 26.5913C8.31243 25.6495 8.31247 24.4633 8.31252 23.0407L8.31252 22.1667C8.31252 21.5108 8.84418 20.9792 9.50002 20.9792ZM34.8334 20.9792C35.4892 20.9792 36.0209 21.5108 36.0209 22.1667V22.256C36.0209 25.1658 36.0209 27.4705 35.7784 29.2743C35.5288 31.1306 35.003 32.6331 33.8181 33.818C32.6331 35.0029 31.1306 35.5288 29.2743 35.7784C27.4705 36.0209 25.1658 36.0209 22.256 36.0208H22.1667C21.5109 36.0208 20.9792 35.4892 20.9792 34.8333C20.9792 34.1775 21.5109 33.6458 22.1667 33.6458C25.1858 33.6458 27.3307 33.6433 28.9578 33.4246C30.5508 33.2104 31.4686 32.8087 32.1387 32.1387C32.8088 31.4686 33.2104 30.5508 33.4246 28.9578C33.6433 27.3307 33.6459 25.1858 33.6459 22.1667C33.6459 21.5108 34.1775 20.9792 34.8334 20.9792Z" fill="#FBFCFF"/>
</svg>
