<svg width="31" height="35" viewBox="0 0 31 35" fill="none" xmlns="http://www.w3.org/2000/svg">
<path d="M15.4375 9.5C16.0933 9.5 16.625 10.0317 16.625 10.6875V17.0208C16.625 17.6767 16.0933 18.2083 15.4375 18.2083C14.7817 18.2083 14.25 17.6767 14.25 17.0208V10.6875C14.25 10.0317 14.7817 9.5 15.4375 9.5Z" fill="white"/>
<path d="M15.4375 23.3542C16.312 23.3542 17.0208 22.6453 17.0208 21.7708C17.0208 20.8964 16.312 20.1875 15.4375 20.1875C14.563 20.1875 13.8542 20.8964 13.8542 21.7708C13.8542 22.6453 14.563 23.3542 15.4375 23.3542Z" fill="white"/>
<path fill-rule="evenodd" clip-rule="evenodd" d="M10.2495 1.26843C12.5358 0.485422 13.9531 0 15.4375 0C16.9219 0 18.3392 0.485424 20.6255 1.26844L21.7772 1.66271C24.1227 2.46556 25.9328 3.08516 27.2285 3.61156C27.8813 3.87673 28.4424 4.13356 28.8943 4.39598C29.3291 4.64851 29.7654 4.9635 30.0618 5.38577C30.3547 5.80317 30.5062 6.3163 30.6014 6.81026C30.7003 7.3238 30.76 7.93984 30.7985 8.64715C30.875 10.0516 30.875 11.9757 30.875 14.4714V17.0072C30.875 26.6671 23.579 31.2986 19.2401 33.1939L19.1972 33.2126C18.6592 33.4477 18.1535 33.6687 17.5725 33.8175C16.959 33.9745 16.3072 34.0417 15.4375 34.0417C14.5678 34.0417 13.916 33.9745 13.3025 33.8174C12.7215 33.6687 12.2158 33.4477 11.6778 33.2126L11.6349 33.1939C7.29604 31.2986 2.45857e-08 26.6671 2.45857e-08 17.0072V14.4715C-2.24039e-06 11.9758 -3.75137e-06 10.0516 0.0764732 8.64715C0.114988 7.93984 0.174661 7.3238 0.273622 6.81026C0.368812 6.3163 0.520291 5.80317 0.81325 5.38577C1.10963 4.9635 1.54588 4.64851 1.98072 4.39598C2.43258 4.13356 2.99374 3.87673 3.64647 3.61156C4.94222 3.08516 6.75231 2.46556 9.09775 1.66272L10.2495 1.26843ZM15.4375 2.375C14.3961 2.375 13.3715 2.71009 10.8151 3.58514L9.90819 3.89559C7.51325 4.71538 5.76665 5.31374 4.54036 5.81192C3.92825 6.06058 3.48476 6.26897 3.17345 6.44976C3.01977 6.53901 2.91387 6.61266 2.84315 6.67015C2.78318 6.7189 2.76032 6.7465 2.75704 6.75052C2.75398 6.75549 2.7343 6.78839 2.7066 6.86618C2.67495 6.95502 2.63988 7.08239 2.60572 7.25967C2.53656 7.61851 2.48416 8.11144 2.44796 8.77629C2.37544 10.1082 2.375 11.9674 2.375 14.5139V17.0072C2.375 25.2011 8.50234 29.2338 12.5856 31.0175C13.1738 31.2744 13.5134 31.4198 13.8915 31.5166C14.2527 31.6091 14.6933 31.6667 15.4375 31.6667C16.1817 31.6667 16.6223 31.6091 16.9835 31.5166C17.3616 31.4198 17.7012 31.2744 18.2894 31.0175C22.3727 29.2338 28.5 25.2011 28.5 17.0072V14.5139C28.5 11.9674 28.4996 10.1082 28.427 8.77629C28.3908 8.11144 28.3384 7.61851 28.2693 7.25967C28.2351 7.08239 28.2 6.95502 28.1684 6.86618C28.1407 6.78833 28.121 6.75544 28.118 6.75051C28.1146 6.74645 28.0918 6.71885 28.0319 6.67015C27.9611 6.61266 27.8552 6.53901 27.7015 6.44976C27.3902 6.26897 26.9467 6.06058 26.3346 5.81192C25.1083 5.31374 23.3618 4.71539 20.9668 3.89559L20.0599 3.58514C17.5035 2.71009 16.4789 2.375 15.4375 2.375Z" fill="white"/>
</svg>
