<svg width="214" height="146" viewBox="0 0 214 146" fill="none" xmlns="http://www.w3.org/2000/svg">
<path d="M213.517 19.1671V126.073C213.517 136.634 204.927 145.224 194.366 145.224H19.1507C8.5899 145.224 0 136.634 0 126.073V19.1671C0 8.83695 8.30232 0 19.1507 0H194.366C205.203 0 213.517 8.82504 213.517 19.1671Z" fill="url(#paint0_linear_95_253)"/>
<path d="M209.246 9.72309L124.102 79.6581C114.052 87.9347 99.4661 87.9363 89.4141 79.6581L4.27027 9.72309C3.58047 9.16411 3.46549 8.16245 4.00752 7.45591C7.63734 2.70986 13.1559 0 19.1507 0H194.366C200.361 0 205.879 2.70986 209.509 7.45591C210.051 8.16245 209.936 9.16411 209.246 9.72309Z" fill="url(#paint1_linear_95_253)"/>
<path d="M23.6996 123.812H59.9208C60.8501 123.812 61.6035 123.058 61.6035 122.129V112.359C61.6035 111.43 60.8501 110.676 59.9208 110.676H23.6996C22.7703 110.676 22.0168 111.43 22.0168 112.359V122.129C22.0168 123.058 22.7703 123.812 23.6996 123.812Z" fill="#E34545"/>
<path d="M108.5 110.637C130.868 110.637 149 92.5047 149 70.1372C149 47.7697 130.868 29.6372 108.5 29.6372C86.1325 29.6372 68 47.7697 68 70.1372C68 92.5047 86.1325 110.637 108.5 110.637Z" fill="url(#paint2_linear_95_253)"/>
<path d="M108.5 110.637C130.868 110.637 149 92.5047 149 70.1372C149 47.7697 130.868 29.6372 108.5 29.6372C86.1325 29.6372 68 47.7697 68 70.1372C68 92.5047 86.1325 110.637 108.5 110.637Z" fill="url(#paint3_linear_95_253)"/>
<path d="M126.112 87.7097C123.774 90.0476 120.007 90.0478 117.669 87.7102L109.378 79.419L101.088 87.7096C98.7497 90.0475 94.9823 90.0477 92.6447 87.7101C90.3071 85.3724 90.2904 81.5882 92.6283 79.2503L100.919 70.9597L92.6446 62.6854C90.3069 60.3477 90.2903 56.5635 92.6282 54.2257C94.9534 51.9005 98.7612 51.8824 101.104 54.2257L109.379 62.4999L117.653 54.2258C119.991 51.8879 123.791 51.8881 126.129 54.2258C128.481 56.5779 128.441 60.3558 126.112 62.685L117.838 70.9592L126.129 79.2504C128.467 81.588 128.449 85.3726 126.112 87.7097Z" fill="url(#paint4_linear_95_253)"/>
<defs>
<linearGradient id="paint0_linear_95_253" x1="103.655" y1="-5.72468" x2="108.149" y2="107.765" gradientUnits="userSpaceOnUse">
<stop stop-color="#D6DCE8"/>
<stop offset="1" stop-color="#F1F3F9"/>
</linearGradient>
<linearGradient id="paint1_linear_95_253" x1="109.5" y1="71.6372" x2="107" y2="-62.3628" gradientUnits="userSpaceOnUse">
<stop stop-color="#EB4F4F"/>
<stop offset="1" stop-color="#FC6565"/>
</linearGradient>
<linearGradient id="paint2_linear_95_253" x1="67.9979" y1="70.1372" x2="149" y2="70.1372" gradientUnits="userSpaceOnUse">
<stop stop-color="#FE6767"/>
<stop offset="1" stop-color="#AAB2C5"/>
<stop offset="1" stop-color="#DF4141"/>
</linearGradient>
<linearGradient id="paint3_linear_95_253" x1="67.9979" y1="70.1372" x2="149" y2="70.1372" gradientUnits="userSpaceOnUse">
<stop stop-color="#E04242"/>
<stop offset="1" stop-color="#FE6767"/>
</linearGradient>
<linearGradient id="paint4_linear_95_253" x1="90.8823" y1="70.968" x2="127.876" y2="70.968" gradientUnits="userSpaceOnUse">
<stop stop-color="#D6DCE8"/>
<stop offset="1" stop-color="#F1F3F9"/>
</linearGradient>
</defs>
</svg>
