<svg width="214" height="146" viewBox="0 0 214 146" fill="none" xmlns="http://www.w3.org/2000/svg">
<path d="M213.517 19.1671V126.073C213.517 136.634 204.927 145.224 194.366 145.224H19.1507C8.5899 145.224 0 136.634 0 126.073V19.1671C0 8.83695 8.30232 0 19.1507 0H194.366C205.203 0 213.517 8.82504 213.517 19.1671Z" fill="url(#paint0_linear_95_270)"/>
<path d="M209.246 9.72309L124.102 79.6581C114.052 87.9347 99.4661 87.9363 89.4141 79.6581L4.27027 9.72309C3.58047 9.16411 3.46549 8.16245 4.00752 7.45591C7.63734 2.70986 13.1559 0 19.1507 0H194.366C200.361 0 205.879 2.70986 209.509 7.45591C210.051 8.16245 209.936 9.16411 209.246 9.72309Z" fill="url(#paint1_linear_95_270)"/>
<path d="M23.6996 123.812H59.9208C60.8501 123.812 61.6035 123.058 61.6035 122.129V112.359C61.6035 111.43 60.8501 110.676 59.9208 110.676H23.6996C22.7703 110.676 22.0168 111.43 22.0168 112.359V122.129C22.0168 123.058 22.7703 123.812 23.6996 123.812Z" fill="#70CEBC"/>
<path d="M108.5 110.637C130.868 110.637 149 92.5047 149 70.1372C149 47.7697 130.868 29.6372 108.5 29.6372C86.1325 29.6372 68 47.7697 68 70.1372C68 92.5047 86.1325 110.637 108.5 110.637Z" fill="url(#paint2_linear_95_270)"/>
<path d="M99.5254 79.5223L93.1464 71.1841C91.277 68.741 91.7433 65.2455 94.1851 63.3775C96.6296 61.5094 100.125 61.9744 101.992 64.4162L104.881 68.1931L116.297 58.8882C118.68 56.9481 122.188 57.3029 124.132 59.6863C126.075 62.0709 125.717 65.5786 123.334 67.5215L107.467 80.455C105.036 82.4359 101.438 82.0233 99.5254 79.5223Z" fill="url(#paint3_linear_95_270)"/>
<defs>
<linearGradient id="paint0_linear_95_270" x1="103.655" y1="-5.72468" x2="108.149" y2="107.765" gradientUnits="userSpaceOnUse">
<stop stop-color="#D6DCE8"/>
<stop offset="1" stop-color="#F1F3F9"/>
</linearGradient>
<linearGradient id="paint1_linear_95_270" x1="107" y1="-65.3628" x2="107" y2="112.137" gradientUnits="userSpaceOnUse">
<stop stop-color="#72D0BE"/>
<stop offset="1" stop-color="#64C2AF"/>
</linearGradient>
<linearGradient id="paint2_linear_95_270" x1="67.9979" y1="70.1372" x2="149" y2="70.1372" gradientUnits="userSpaceOnUse">
<stop stop-color="#72D0BE"/>
<stop offset="1" stop-color="#62C0AD"/>
</linearGradient>
<linearGradient id="paint3_linear_95_270" x1="92.0005" y1="69.6719" x2="125.385" y2="69.6719" gradientUnits="userSpaceOnUse">
<stop stop-color="white"/>
<stop offset="1" stop-color="white"/>
</linearGradient>
</defs>
</svg>
