<svg width="38" height="38" viewBox="0 0 38 38" fill="none" xmlns="http://www.w3.org/2000/svg">
<path fill-rule="evenodd" clip-rule="evenodd" d="M14.6458 14.25C14.6458 11.8453 16.5953 9.89583 19 9.89583C21.4047 9.89583 23.3542 11.8453 23.3542 14.25C23.3542 16.6547 21.4047 18.6042 19 18.6042C16.5953 18.6042 14.6458 16.6547 14.6458 14.25ZM19 12.2708C17.9069 12.2708 17.0208 13.1569 17.0208 14.25C17.0208 15.3431 17.9069 16.2292 19 16.2292C20.0931 16.2292 20.9792 15.3431 20.9792 14.25C20.9792 13.1569 20.0931 12.2708 19 12.2708Z" fill="#FDFDFF"/>
<path fill-rule="evenodd" clip-rule="evenodd" d="M19 19.3958C17.1067 19.3958 15.334 19.777 13.9906 20.4487C12.7182 21.0849 11.4792 22.1834 11.4792 23.75L11.479 23.8489C11.4765 24.657 11.4724 26.0176 12.762 26.9511C13.3605 27.3843 14.1501 27.6606 15.1283 27.8365C16.1155 28.0142 17.3806 28.1042 19 28.1042C20.6194 28.1042 21.8845 28.0142 22.8717 27.8365C23.8499 27.6606 24.6395 27.3843 25.238 26.9511C26.5276 26.0176 26.5235 24.657 26.521 23.8489L26.5208 23.75C26.5208 22.1834 25.2818 21.0849 24.0094 20.4487C22.666 19.777 20.8933 19.3958 19 19.3958ZM13.8542 23.75C13.8542 23.5677 14.0329 23.0829 15.0527 22.573C16.0016 22.0985 17.3955 21.7708 19 21.7708C20.6045 21.7708 21.9984 22.0985 22.9473 22.573C23.9671 23.0829 24.1458 23.5677 24.1458 23.75C24.1458 24.7071 24.0849 24.8538 23.8454 25.0272C23.6521 25.1671 23.2543 25.3546 22.4512 25.4991C21.6572 25.6419 20.5473 25.7292 19 25.7292C17.4527 25.7292 16.3428 25.6419 15.5488 25.4991C14.7457 25.3546 14.3479 25.1671 14.1546 25.0272C13.9151 24.8538 13.8542 24.7071 13.8542 23.75Z" fill="#FDFDFF"/>
<path fill-rule="evenodd" clip-rule="evenodd" d="M13.812 3.2476C16.0983 2.46459 17.5156 1.97916 19 1.97916C20.4844 1.97916 21.9017 2.46459 24.188 3.2476L25.3397 3.64187C27.6852 4.44473 29.4953 5.06433 30.791 5.59072C31.4438 5.85589 32.0049 6.11272 32.4568 6.37514C32.8916 6.62768 33.3279 6.94266 33.6243 7.36494C33.9172 7.78234 34.0687 8.29547 34.1639 8.78943C34.2628 9.30296 34.3225 9.919 34.361 10.6263C34.4375 12.0308 34.4375 13.9549 34.4375 16.4505V18.9863C34.4375 28.6463 27.1415 33.2777 22.8026 35.1731L22.7597 35.1918C22.2217 35.4269 21.716 35.6479 21.135 35.7966C20.5215 35.9537 19.8697 36.0208 19 36.0208C18.1303 36.0208 17.4785 35.9537 16.865 35.7966C16.284 35.6479 15.7783 35.4269 15.2403 35.1918L15.1974 35.1731C10.8585 33.2777 3.5625 28.6463 3.5625 18.9863V16.4507C3.5625 13.9551 3.5625 12.0307 3.63897 10.6263C3.67749 9.919 3.73716 9.30296 3.83612 8.78943C3.93131 8.29547 4.08279 7.78234 4.37575 7.36494C4.67213 6.94266 5.10838 6.62768 5.54322 6.37514C5.99508 6.11272 6.55624 5.85589 7.20897 5.59072C8.50472 5.06433 10.3148 4.44473 12.6603 3.64188L13.812 3.2476ZM19 4.35416C17.9586 4.35416 16.934 4.68926 14.3776 5.5643L13.4707 5.87475C11.0757 6.69455 9.32915 7.2929 8.10286 7.79108C7.49075 8.03975 7.04726 8.24813 6.73595 8.42892C6.58227 8.51818 6.47637 8.59182 6.40565 8.64931C6.34568 8.69806 6.32282 8.72566 6.31954 8.72968C6.31648 8.73466 6.2968 8.76755 6.2691 8.84534C6.23745 8.93419 6.20238 9.06155 6.16822 9.23884C6.09906 9.59768 6.04666 10.0906 6.01046 10.7555C5.93794 12.0873 5.9375 13.9465 5.9375 16.493V18.9863C5.9375 27.1802 12.0648 31.213 16.1481 32.9966C16.7363 33.2536 17.0759 33.399 17.454 33.4958C17.8152 33.5883 18.2558 33.6458 19 33.6458C19.7442 33.6458 20.1848 33.5883 20.546 33.4958C20.9241 33.399 21.2637 33.2536 21.8519 32.9966C25.9352 31.213 32.0625 27.1802 32.0625 18.9863V16.493C32.0625 13.9465 32.0621 12.0873 31.9895 10.7555C31.9533 10.0906 31.9009 9.59768 31.8318 9.23884C31.7976 9.06155 31.7625 8.93419 31.7309 8.84534C31.7032 8.7675 31.6835 8.73461 31.6805 8.72968C31.6771 8.72562 31.6543 8.69802 31.5944 8.64931C31.5236 8.59182 31.4177 8.51818 31.264 8.42892C30.9527 8.24813 30.5092 8.03975 29.8971 7.79108C28.6708 7.2929 26.9243 6.69455 24.5293 5.87475L23.6224 5.5643C21.066 4.68926 20.0414 4.35416 19 4.35416Z" fill="#FDFDFF"/>
</svg>
