<svg width="38" height="38" viewBox="0 0 38 38" fill="none" xmlns="http://www.w3.org/2000/svg">
<path d="M23.8441 16.6242C24.2809 16.135 24.2384 15.3843 23.7492 14.9475C23.26 14.5107 22.5093 14.5532 22.0725 15.0424L17.3036 20.3837L15.9275 18.8424C15.4907 18.3532 14.74 18.3107 14.2508 18.7475C13.7616 19.1843 13.7191 19.935 14.1559 20.4242L16.4178 22.9576C16.6431 23.2099 16.9653 23.3542 17.3036 23.3542C17.6419 23.3542 17.9641 23.2099 18.1894 22.9576L23.8441 16.6242Z" fill="#FBFCFF"/>
<path fill-rule="evenodd" clip-rule="evenodd" d="M19 1.97917C17.5156 1.97917 16.0983 2.46459 13.812 3.2476L12.6603 3.64189C10.3148 4.44474 8.50472 5.06433 7.20897 5.59073C6.55624 5.8559 5.99508 6.11273 5.54322 6.37515C5.10838 6.62769 4.67213 6.94267 4.37575 7.36495C4.08279 7.78234 3.93131 8.29548 3.83612 8.78944C3.73716 9.30297 3.67749 9.91901 3.63897 10.6263C3.5625 12.0307 3.5625 13.9547 3.5625 16.4503V18.9863C3.5625 28.6463 10.8585 33.2777 15.1974 35.1731L15.2403 35.1918C15.7783 35.4269 16.284 35.6479 16.865 35.7966C17.4785 35.9537 18.1303 36.0208 19 36.0208C19.8697 36.0208 20.5215 35.9537 21.135 35.7966C21.716 35.6479 22.2217 35.4269 22.7597 35.1918L22.8026 35.1731C27.1415 33.2777 34.4375 28.6463 34.4375 18.9863V16.4505C34.4375 13.9549 34.4375 12.0308 34.361 10.6263C34.3225 9.91901 34.2628 9.30297 34.1639 8.78944C34.0687 8.29548 33.9172 7.78234 33.6243 7.36495C33.3279 6.94267 32.8916 6.62769 32.4568 6.37515C32.0049 6.11273 31.4438 5.8559 30.791 5.59073C29.4953 5.06433 27.6852 4.44473 25.3397 3.64188L24.188 3.24761C21.9017 2.4646 20.4844 1.97917 19 1.97917ZM14.3776 5.56431C16.934 4.68926 17.9586 4.35417 19 4.35417C20.0414 4.35417 21.066 4.68926 23.6224 5.56431L24.5293 5.87476C26.9243 6.69456 28.6708 7.29291 29.8971 7.79109C30.5092 8.03976 30.9527 8.24814 31.264 8.42893C31.4177 8.51818 31.5236 8.59183 31.5944 8.64932C31.6543 8.69803 31.6771 8.72562 31.6805 8.72968C31.6835 8.73462 31.7032 8.7675 31.7309 8.84535C31.7625 8.9342 31.7976 9.06156 31.8318 9.23885C31.9009 9.59768 31.9533 10.0906 31.9895 10.7555C32.0621 12.0873 32.0625 13.9465 32.0625 16.493V18.9863C32.0625 27.1802 25.9352 31.213 21.8519 32.9967C21.2637 33.2536 20.9241 33.399 20.546 33.4958C20.1848 33.5883 19.7442 33.6458 19 33.6458C18.2558 33.6458 17.8152 33.5883 17.454 33.4958C17.0759 33.399 16.7363 33.2536 16.1481 32.9966C12.0648 31.213 5.9375 27.1802 5.9375 18.9863V16.493C5.9375 13.9465 5.93794 12.0873 6.01046 10.7555C6.04666 10.0906 6.09906 9.59768 6.16822 9.23885C6.20238 9.06156 6.23745 8.9342 6.2691 8.84535C6.2968 8.76756 6.31648 8.73466 6.31954 8.72969C6.32282 8.72567 6.34568 8.69807 6.40565 8.64932C6.47637 8.59183 6.58227 8.51818 6.73595 8.42893C7.04726 8.24814 7.49075 8.03976 8.10286 7.79109C9.32915 7.29291 11.0757 6.69456 13.4707 5.87476L14.3776 5.56431Z" fill="#FBFCFF"/>
</svg>
