<svg width="292" height="292" viewBox="0 0 292 292" fill="none" xmlns="http://www.w3.org/2000/svg">
<g clip-path="url(#clip0_74_250)">
<path d="M257.906 146.023C257.906 215.016 201.772 271.131 132.779 271.131C63.7863 271.131 7.65271 215.016 7.65271 146.023C7.65271 77.0111 63.7863 20.8773 132.779 20.8773C201.772 20.8774 257.906 77.0111 257.906 146.023Z" fill="#D6DCE8"/>
<path d="M249.725 74.6737V205.191C249.725 213.199 243.219 219.705 235.23 219.705H30.3492C22.3411 219.705 15.8345 213.199 15.8345 205.191V74.6737C15.8345 66.6656 22.3411 60.159 30.3492 60.159H235.23C243.219 60.159 249.725 66.6656 249.725 74.6737Z" fill="#F9FAFD"/>
<path d="M249.725 74.6626V89.6392H15.8341V74.6626C15.8341 66.6737 22.3407 60.1671 30.3489 60.1671H235.229C243.218 60.1671 249.725 66.6737 249.725 74.6626Z" fill="url(#paint0_linear_74_250)"/>
<path d="M48.5989 74.9038C48.5989 76.9007 46.9865 78.5131 45.0019 78.5131C43.0049 78.5131 41.3925 76.9007 41.3925 74.9038C41.3925 72.9068 43.0049 71.2943 45.0019 71.2943C46.9865 71.2943 48.5989 72.9068 48.5989 74.9038ZM36.3081 74.9038C36.3081 76.9007 34.6956 78.5131 32.7111 78.5131C30.7141 78.5131 29.1017 76.9007 29.1017 74.9038C29.1017 72.9068 30.7141 71.2943 32.7111 71.2943C34.6956 71.2943 36.3081 72.9068 36.3081 74.9038ZM60.8897 74.9038C60.8897 76.9007 59.2773 78.5131 57.2928 78.5131C55.2958 78.5131 53.6833 76.9007 53.6833 74.9038C53.6833 72.9068 55.2958 71.2943 57.2928 71.2943C59.2773 71.2943 60.8897 72.9068 60.8897 74.9038Z" fill="#F1F3F9"/>
<path d="M254.003 57.627C252.097 57.627 251.104 55.3035 252.474 53.9345L268.318 38.0922C269.163 37.2478 270.532 37.2476 271.376 38.0925C272.221 38.9371 272.221 40.3066 271.376 41.1513L255.532 56.9936C255.11 57.4158 254.556 57.627 254.003 57.627ZM239.088 51.4489C237.893 51.4489 236.925 50.4804 236.925 49.2859V26.8813C236.925 25.6868 237.893 24.7184 239.088 24.7184C240.284 24.7184 241.251 25.6868 241.251 26.8813V49.2859C241.251 50.4804 240.284 51.4489 239.088 51.4489ZM282.586 72.543H260.181C258.986 72.543 258.018 71.5746 258.018 70.3801C258.018 69.1856 258.986 68.2171 260.181 68.2171H282.586C283.782 68.2171 284.749 69.1856 284.749 70.3801C284.749 71.5746 283.782 72.543 282.586 72.543Z" fill="#49FFC8"/>
<path d="M202.198 123.923V123.928C202.198 124.481 201.749 124.925 201.201 124.925C198.204 124.925 195.767 127.362 195.767 130.359C195.767 130.907 195.323 131.356 194.769 131.356C194.221 131.356 193.772 130.907 193.772 130.359C193.772 128.908 193.209 127.542 192.177 126.515C191.155 125.488 189.789 124.925 188.333 124.925C187.785 124.925 187.336 124.481 187.336 123.928C187.336 123.379 187.785 122.926 188.333 122.926C191.335 122.926 193.772 120.488 193.772 117.491C193.772 116.943 194.221 116.494 194.769 116.494C195.323 116.494 195.767 116.943 195.767 117.491C195.767 118.942 196.33 120.308 197.357 121.34C198.384 122.362 199.75 122.926 201.201 122.926C201.749 122.926 202.198 123.369 202.198 123.923ZM216.42 163.284V163.287C216.42 163.637 216.136 163.917 215.79 163.917C213.895 163.917 212.354 165.458 212.354 167.352C212.354 167.699 212.074 167.983 211.724 167.983C211.377 167.983 211.094 167.699 211.094 167.352C211.094 165.466 209.571 163.917 207.656 163.917C207.309 163.917 207.025 163.637 207.025 163.287C207.025 162.94 207.309 162.654 207.656 162.654C209.553 162.654 211.094 161.113 211.094 159.218C211.094 158.872 211.377 158.588 211.724 158.588C212.074 158.588 212.354 158.872 212.354 159.218C212.354 161.111 213.877 162.654 215.79 162.654C216.136 162.654 216.42 162.934 216.42 163.284ZM88.411 119.025V119.028C88.411 119.393 88.1152 119.686 87.7537 119.686C85.7785 119.686 84.1714 121.293 84.1714 123.268C84.1714 123.629 83.8789 123.925 83.5141 123.925C83.1526 123.925 82.8568 123.629 82.8568 123.268C82.8568 121.301 81.2686 119.686 79.2712 119.686C78.9097 119.686 78.6139 119.393 78.6139 119.028C78.6139 118.667 78.9097 118.368 79.2712 118.368C81.2497 118.368 82.8568 116.761 82.8568 114.785C82.8568 114.424 83.1526 114.128 83.5141 114.128C83.8789 114.128 84.1714 114.424 84.1714 114.785C84.1714 116.759 85.7593 118.368 87.7537 118.368C88.1152 118.368 88.411 118.66 88.411 119.025ZM63.405 158.902V158.905C63.405 159.231 63.1403 159.493 62.8169 159.493C61.05 159.493 59.6123 160.93 59.6123 162.697C59.6123 163.021 59.3506 163.285 59.0243 163.285C58.7009 163.285 58.4362 163.021 58.4362 162.697C58.4362 160.938 57.0154 159.493 55.2286 159.493C54.9052 159.493 54.6406 159.231 54.6406 158.905C54.6406 158.581 54.9052 158.314 55.2286 158.314C56.9986 158.314 58.4362 156.876 58.4362 155.109C58.4362 154.786 58.7009 154.521 59.0243 154.521C59.3506 154.521 59.6123 154.786 59.6123 155.109C59.6123 156.875 61.0328 158.314 62.8169 158.314C63.1403 158.314 63.405 158.575 63.405 158.902Z" fill="#49FFC8"/>
<path d="M37.4308 40.1373C37.4308 43.3903 34.7495 46.0275 31.4969 46.0275C28.2442 46.0275 25.6067 43.3903 25.6067 40.1373C25.6067 36.8847 28.2442 34.2034 31.4969 34.2034C34.7495 34.2034 37.4308 36.8847 37.4308 40.1373ZM50.1443 33.1707C50.1443 35.2411 48.4377 36.9197 46.3675 36.9197C44.2972 36.9197 42.6185 35.2411 42.6185 33.1707C42.6185 31.1004 44.2972 29.3939 46.3675 29.3939C48.4377 29.3939 50.1443 31.1004 50.1443 33.1707ZM34.3381 247.597C34.3381 251.374 31.2247 254.436 27.4477 254.436C23.6707 254.436 20.608 251.374 20.608 247.597C20.608 243.82 23.6707 240.706 27.4477 240.706C31.2247 240.706 34.3381 243.82 34.3381 247.597ZM239.305 246.342C239.962 249.528 237.868 252.652 234.682 253.309C231.497 253.965 228.381 251.915 227.725 248.729C227.068 245.543 229.11 242.384 232.296 241.728C235.481 241.071 238.649 243.156 239.305 246.342ZM250.351 236.952C250.769 238.98 249.436 240.969 247.409 241.386C245.381 241.804 243.398 240.499 242.98 238.471C242.562 236.444 243.862 234.434 245.889 234.016C247.917 233.598 249.933 234.925 250.351 236.952Z" fill="#D6DCE8"/>
<path d="M172.632 151.594V196.702C172.632 197.017 172.208 227.997 133.629 237.877C132.917 238.063 132.147 238.069 131.379 237.877C92.7997 227.997 92.3906 197.017 92.3906 196.702V151.594C92.3906 148.965 94.6559 146.96 97.2051 147.188C114.072 148.714 126.91 142.688 130.435 140.816C131.741 140.124 133.282 140.124 134.573 140.816C138.113 142.688 150.936 148.714 167.802 147.188C170.438 146.952 172.632 149.067 172.632 151.594Z" fill="url(#paint1_linear_74_250)"/>
<path d="M152.99 186.159C152.99 197.467 143.82 206.637 132.512 206.637C121.203 206.637 112.033 197.467 112.033 186.159C112.033 174.873 121.203 165.703 132.512 165.703C143.82 165.703 152.99 174.873 152.99 186.159Z" fill="white"/>
<path d="M126.693 192.752L121.953 186.995C120.755 185.54 120.964 183.389 122.42 182.191C123.875 180.991 126.024 181.201 127.224 182.657L129.831 185.824L138.312 179.085C139.787 177.911 141.935 178.159 143.107 179.634C144.28 181.11 144.034 183.257 142.558 184.429L131.451 193.255C129.992 194.417 127.872 194.186 126.693 192.752Z" fill="url(#paint2_linear_74_250)"/>
</g>
<defs>
<linearGradient id="paint0_linear_74_250" x1="132.78" y1="87.7298" x2="132.78" y2="65.3994" gradientUnits="userSpaceOnUse">
<stop stop-color="#49FFC8"/>
<stop offset="1" stop-color="#24D59F"/>
</linearGradient>
<linearGradient id="paint1_linear_74_250" x1="92.3907" y1="189.158" x2="172.632" y2="189.158" gradientUnits="userSpaceOnUse">
<stop stop-color="#49FFC8"/>
<stop offset="1" stop-color="#2AD7A2"/>
</linearGradient>
<linearGradient id="paint2_linear_74_250" x1="121.176" y1="186.171" x2="143.848" y2="186.171" gradientUnits="userSpaceOnUse">
<stop stop-color="#48FDC6"/>
<stop offset="1" stop-color="#2CD9A4"/>
</linearGradient>
<clipPath id="clip0_74_250">
<rect width="292" height="292" fill="white"/>
</clipPath>
</defs>
</svg>
