<svg width="28" height="35" viewBox="0 0 28 35" fill="none" xmlns="http://www.w3.org/2000/svg">
<path fill-rule="evenodd" clip-rule="evenodd" d="M12.3344 0.979158H15.6657C17.0883 0.979112 18.2746 0.979073 19.2163 1.10569C20.2103 1.23933 21.1077 1.53331 21.8289 2.25447C22.5501 2.97563 22.844 3.87306 22.9777 4.86707C23.0788 5.61929 23.0991 6.52752 23.1032 7.58759C24.2824 7.80951 25.2911 8.2275 26.1152 9.05155C27.0682 10.0046 27.4781 11.2045 27.6697 12.6297C27.8543 14.0024 27.8542 15.7478 27.8542 17.9131V19.7356C27.8542 21.5858 27.8542 23.0653 27.7297 24.27C27.6009 25.516 27.3312 26.5685 26.731 27.5397C26.1307 28.511 25.3099 29.2228 24.2531 29.8952C23.2313 30.5454 21.9079 31.2071 20.2531 32.0344L20.1958 32.0631C20.1055 32.1083 20.0163 32.1529 19.9282 32.197C17.4089 33.4577 15.7791 34.2733 14 34.2733C12.221 34.2733 10.5912 33.4577 8.07185 32.197C7.98376 32.1529 7.89458 32.1083 7.80427 32.0631L7.74696 32.0345C6.09215 31.2071 4.7688 30.5454 3.74696 29.8952C2.69014 29.2228 1.86938 28.511 1.26911 27.5397C0.668837 26.5685 0.399233 25.516 0.270408 24.27C0.145846 23.0653 0.145859 21.5858 0.145875 19.7356L0.145875 17.9131C0.145842 15.7478 0.145816 14.0024 0.33037 12.6297C0.52198 11.2045 0.931895 10.0046 1.88493 9.05155C2.70898 8.2275 3.71764 7.8095 4.89688 7.58759C4.90094 6.52752 4.92127 5.61929 5.0224 4.86707C5.15604 3.87306 5.45002 2.97563 6.17118 2.25447C6.89234 1.53331 7.78978 1.23933 8.78378 1.10569C9.72552 0.979073 10.9118 0.979112 12.3344 0.979158ZM7.27346 7.35306C8.28499 7.31246 9.43919 7.31247 10.7465 7.31249H17.2536C18.5609 7.31247 19.7151 7.31246 20.7266 7.35306C20.7203 6.43124 20.6985 5.73875 20.6239 5.18353C20.5256 4.45288 20.3559 4.14018 20.1495 3.93384C19.9432 3.72751 19.6305 3.55774 18.8998 3.45951C18.135 3.35668 17.1097 3.35416 15.5834 3.35416H12.4167C10.8904 3.35416 9.86505 3.35668 9.10025 3.45951C8.3696 3.55774 8.05689 3.72751 7.85056 3.93384C7.64423 4.14018 7.47446 4.45288 7.37622 5.18353C7.30158 5.73875 7.27979 6.43124 7.27346 7.35306ZM5.77957 9.85081C4.61776 10.007 4.00252 10.2927 3.56431 10.7309C3.1261 11.1691 2.84039 11.7844 2.68419 12.9462C2.5234 14.1422 2.52088 15.7272 2.52088 18V19.6716C2.52088 21.6004 2.52234 22.9573 2.63281 24.0258C2.74046 25.0669 2.94379 25.7319 3.2894 26.2911C3.63501 26.8503 4.13888 27.3296 5.02193 27.8915C5.9282 28.4681 7.1412 29.0762 8.8664 29.9388C11.7528 31.382 12.8511 31.8983 14 31.8983C15.1489 31.8983 16.2473 31.382 19.1337 29.9388C20.8589 29.0762 22.0719 28.4681 22.9781 27.8915C23.8612 27.3296 24.3651 26.8503 24.7107 26.2911C25.0563 25.7319 25.2596 25.0669 25.3673 24.0258C25.4777 22.9573 25.4792 21.6004 25.4792 19.6716V18C25.4792 15.7272 25.4767 14.1422 25.3159 12.9462C25.1597 11.7844 24.874 11.1691 24.4358 10.7309C23.9976 10.2927 23.3823 10.007 22.2205 9.85081C21.0245 9.69001 19.4395 9.68749 17.1667 9.68749H10.8334C8.56063 9.68749 6.97554 9.69001 5.77957 9.85081ZM14 16.4713C13.908 16.6306 13.8056 16.8141 13.685 17.0305L13.5294 17.3097C13.5184 17.3294 13.5066 17.351 13.494 17.374C13.3697 17.6014 13.1637 17.978 12.8204 18.2386C12.4699 18.5047 12.0483 18.5963 11.8017 18.6498C11.777 18.6552 11.7541 18.6601 11.7331 18.6649L11.4309 18.7333C11.1535 18.796 10.9276 18.8472 10.7344 18.8958C10.8601 19.0504 11.0233 19.2425 11.2356 19.4908L11.4417 19.7317C11.4563 19.7488 11.4722 19.7671 11.4891 19.7866C11.66 19.9835 11.9359 20.3013 12.0635 20.7116C12.1896 21.1171 12.1461 21.5347 12.1187 21.7981C12.1159 21.8244 12.1134 21.8492 12.1111 21.8722L12.08 22.1937C12.0511 22.4918 12.0286 22.7297 12.0137 22.9232C12.1787 22.8505 12.3664 22.7641 12.5893 22.6615L12.8723 22.5312C12.8918 22.5222 12.9132 22.5121 12.9363 22.5012C13.1635 22.3941 13.5588 22.2076 14 22.2076C14.4413 22.2076 14.8366 22.3941 15.0638 22.5012C15.0869 22.5121 15.1083 22.5222 15.1277 22.5312L15.4107 22.6615C15.6337 22.7641 15.8214 22.8505 15.9864 22.9232C15.9715 22.7297 15.949 22.4918 15.9201 22.1937L15.889 21.8722C15.8867 21.8492 15.8842 21.8244 15.8814 21.7981C15.854 21.5347 15.8105 21.1171 15.9366 20.7116C16.0642 20.3013 16.3401 19.9835 16.511 19.7866C16.5279 19.7671 16.5438 19.7488 16.5584 19.7317L16.7645 19.4908C16.9768 19.2425 17.14 19.0504 17.2657 18.8958C17.0725 18.8472 16.8466 18.796 16.5692 18.7333L16.2669 18.6649C16.246 18.6601 16.2231 18.6552 16.1984 18.6498C15.9518 18.5963 15.5302 18.5047 15.1797 18.2386C14.8363 17.978 14.6304 17.6014 14.5061 17.374C14.4935 17.351 14.4817 17.3294 14.4707 17.3097L14.3151 17.0305C14.1944 16.8141 14.0921 16.6306 14 16.4713ZM12.4381 14.5161C12.7107 14.1601 13.2057 13.6458 14 13.6458C14.7944 13.6458 15.2894 14.1601 15.562 14.5161C15.8222 14.8558 16.0842 15.3261 16.3528 15.8083C16.3651 15.8302 16.3773 15.8522 16.3895 15.8741L16.5452 16.1533C16.5813 16.2181 16.6097 16.269 16.6346 16.3126C16.6778 16.3228 16.7282 16.3342 16.7911 16.3484L17.0933 16.4168C17.1181 16.4224 17.1428 16.428 17.1676 16.4336C17.6866 16.5509 18.2025 16.6675 18.5984 16.8235C19.0356 16.9958 19.6283 17.3314 19.8567 18.0659C20.0811 18.7874 19.7979 19.3986 19.5506 19.7915C19.3218 20.155 18.9739 20.5616 18.6178 20.9779C18.6017 20.9967 18.5856 21.0155 18.5695 21.0343L18.3634 21.2753C18.3088 21.3391 18.2677 21.3873 18.233 21.429C18.2377 21.4865 18.2442 21.5535 18.2529 21.6431L18.284 21.9646C18.2864 21.9892 18.2888 22.0136 18.2912 22.0381C18.3453 22.5953 18.3976 23.1338 18.3784 23.5646C18.3583 24.0162 18.2499 24.6999 17.6369 25.1653C17.0045 25.6453 16.306 25.5407 15.8632 25.4138C15.455 25.2969 14.9728 25.0747 14.4872 24.8509C14.4639 24.8402 14.4407 24.8295 14.4174 24.8188L14.1344 24.6885C14.0815 24.6641 14.038 24.6441 14 24.6269C13.9621 24.6441 13.9186 24.6641 13.8656 24.6885L13.5826 24.8188C13.5594 24.8295 13.5361 24.8402 13.5128 24.8509C13.0272 25.0747 12.545 25.2969 12.1369 25.4138C11.694 25.5407 10.9956 25.6453 10.3632 25.1653C9.75021 24.6999 9.64181 24.0162 9.62169 23.5646C9.6025 23.1338 9.6548 22.5953 9.70891 22.0381C9.71129 22.0137 9.71366 21.9892 9.71604 21.9646L9.7472 21.6431C9.75588 21.5535 9.76235 21.4865 9.76707 21.429C9.73241 21.3873 9.69126 21.3391 9.63666 21.2753L9.43059 21.0343C9.41447 21.0155 9.39835 20.9966 9.38226 20.9778C9.02615 20.5616 8.67831 20.155 8.44944 19.7915C8.20215 19.3986 7.91899 18.7874 8.14338 18.0659C8.37179 17.3314 8.96444 16.9958 9.40167 16.8235C9.79763 16.6675 10.3134 16.5509 10.8325 16.4336C10.8572 16.428 10.882 16.4224 10.9068 16.4168L11.209 16.3484C11.2719 16.3342 11.3223 16.3228 11.3655 16.3126C11.3904 16.269 11.4188 16.2181 11.4549 16.1533L11.6106 15.8741C11.6228 15.8522 11.635 15.8302 11.6472 15.8083C11.9159 15.3261 12.1779 14.8558 12.4381 14.5161Z" fill="white"/>
</svg>
