<svg width="35" height="35" viewBox="0 0 35 35" fill="none" xmlns="http://www.w3.org/2000/svg">
<path d="M10.6875 24.9375C11.562 24.9375 12.2708 24.2286 12.2708 23.3542C12.2708 22.4797 11.562 21.7708 10.6875 21.7708C9.81305 21.7708 9.10417 22.4797 9.10417 23.3542C9.10417 24.2286 9.81305 24.9375 10.6875 24.9375Z" fill="white"/>
<path d="M17.0208 24.9375C17.8953 24.9375 18.6042 24.2286 18.6042 23.3542C18.6042 22.4797 17.8953 21.7708 17.0208 21.7708C16.1464 21.7708 15.4375 22.4797 15.4375 23.3542C15.4375 24.2286 16.1464 24.9375 17.0208 24.9375Z" fill="white"/>
<path d="M24.9375 23.3542C24.9375 24.2286 24.2286 24.9375 23.3542 24.9375C22.4797 24.9375 21.7708 24.2286 21.7708 23.3542C21.7708 22.4797 22.4797 21.7708 23.3542 21.7708C24.2286 21.7708 24.9375 22.4797 24.9375 23.3542Z" fill="white"/>
<path fill-rule="evenodd" clip-rule="evenodd" d="M8.70834 10.6875C8.70834 6.09663 12.43 2.375 17.0208 2.375C20.8925 2.375 24.1487 5.023 25.0715 8.60849C25.235 9.24363 25.8824 9.62599 26.5175 9.46252C27.1527 9.29905 27.535 8.65164 27.3716 8.0165C26.1852 3.40717 22.0024 0 17.0208 0C11.1183 0 6.33334 4.78496 6.33334 10.6875V12.7502C5.97418 12.7755 5.63568 12.8083 5.31723 12.8512C3.89206 13.0428 2.69209 13.4527 1.73906 14.4057C0.786021 15.3588 0.376106 16.5587 0.184497 17.9839C-5.69429e-05 19.3566 -3.11537e-05 21.1019 8.392e-07 23.2673V23.441C-3.11537e-05 25.6064 -5.69429e-05 27.3517 0.184497 28.7244C0.376106 30.1496 0.786021 31.3496 1.73906 32.3026C2.69209 33.2556 3.89206 33.6656 5.31723 33.8572C6.68993 34.0417 8.43527 34.0417 10.6006 34.0417H23.441C25.6064 34.0417 27.3517 34.0417 28.7244 33.8572C30.1496 33.6656 31.3496 33.2556 32.3026 32.3026C33.2556 31.3496 33.6656 30.1496 33.8572 28.7244C34.0417 27.3517 34.0417 25.6064 34.0417 23.441V23.2673C34.0417 21.1019 34.0417 19.3566 33.8572 17.9839C33.6656 16.5587 33.2556 15.3588 32.3026 14.4057C31.3496 13.4527 30.1496 13.0428 28.7244 12.8512C27.3517 12.6666 25.6064 12.6666 23.4411 12.6667H10.6006C9.93004 12.6667 9.29975 12.6666 8.70834 12.6721V10.6875ZM5.63369 15.205C4.47188 15.3612 3.85664 15.6469 3.41843 16.0851C2.98023 16.5233 2.69452 17.1385 2.53832 18.3004C2.37752 19.4963 2.375 21.0814 2.375 23.3542C2.375 25.6269 2.37752 27.212 2.53832 28.408C2.69452 29.5698 2.98023 30.185 3.41843 30.6232C3.85664 31.0614 4.47188 31.3471 5.63369 31.5034C6.82966 31.6641 8.41476 31.6667 10.6875 31.6667H23.3542C25.6269 31.6667 27.212 31.6641 28.408 31.5034C29.5698 31.3471 30.185 31.0614 30.6232 30.6232C31.0614 30.185 31.3472 29.5698 31.5034 28.408C31.6641 27.212 31.6667 25.6269 31.6667 23.3542C31.6667 21.0814 31.6641 19.4963 31.5034 18.3004C31.3472 17.1385 31.0614 16.5233 30.6232 16.0851C30.185 15.6469 29.5698 15.3612 28.408 15.205C27.212 15.0442 25.6269 15.0417 23.3542 15.0417H10.6875C8.41476 15.0417 6.82966 15.0442 5.63369 15.205Z" fill="white"/>
</svg>
