<svg width="35" height="35" viewBox="0 0 35 35" fill="none" xmlns="http://www.w3.org/2000/svg">
<path fill-rule="evenodd" clip-rule="evenodd" d="M22.9583 1.1875C22.9583 0.531662 22.4267 0 21.7708 0C21.115 0 20.5833 0.531662 20.5833 1.1875V4.35444C20.5833 4.35529 20.5833 4.35614 20.5833 4.35698V29.6847C20.5833 29.6855 20.5833 29.6864 20.5833 29.6872V32.8542C20.5833 33.51 21.115 34.0417 21.7708 34.0417C22.4267 34.0417 22.9583 33.51 22.9583 32.8542V30.8663C24.8732 30.8466 26.4734 30.7812 27.8016 30.5558C29.4292 30.2797 30.7652 29.7458 31.8389 28.6722C33.0238 27.4873 33.5496 25.9848 33.7992 24.1285C34.0417 22.3247 34.0417 20.02 34.0417 17.1102V16.9315C34.0417 14.0218 34.0417 11.717 33.7992 9.91321C33.5496 8.05688 33.0238 6.55438 31.8389 5.36947C30.7652 4.29584 29.4292 3.762 27.8016 3.48583C26.4734 3.26048 24.8732 3.19505 22.9583 3.17537V1.1875ZM22.9583 5.55067V28.491C24.8365 28.4709 26.266 28.4074 27.4043 28.2143C28.7372 27.9881 29.5499 27.6024 30.1595 26.9928C30.8296 26.3227 31.2312 25.405 31.4454 23.812C31.6641 22.1849 31.6667 20.04 31.6667 17.0208C31.6667 14.0017 31.6641 11.8568 31.4454 10.2297C31.2312 8.6367 30.8296 7.71893 30.1595 7.04885C29.5499 6.43924 28.7372 6.05354 27.4043 5.82736C26.266 5.63424 24.8365 5.57072 22.9583 5.55067Z" fill="white"/>
<path d="M13.7648 3.16667C10.8551 3.16664 8.5503 3.16662 6.74655 3.40913C4.89021 3.65871 3.38771 4.18456 2.2028 5.36947C1.01789 6.55438 0.492042 8.05688 0.242465 9.91321C-4.33177e-05 11.717 -2.39537e-05 14.0217 4.89243e-07 16.9315V17.1102C-2.39537e-05 20.0199 -4.32941e-05 22.3247 0.242465 24.1285C0.492042 25.9848 1.01789 27.4873 2.2028 28.6722C3.38771 29.8571 4.89021 30.383 6.74655 30.6325C8.55029 30.875 10.855 30.875 13.7648 30.875H17.0208C17.6767 30.875 18.2083 30.3433 18.2083 29.6875C18.2083 29.0317 17.6767 28.5 17.0208 28.5H13.8542C10.835 28.5 8.69015 28.4975 7.06301 28.2787C5.47004 28.0645 4.55226 27.6629 3.88218 26.9928C3.2121 26.3227 2.81046 25.405 2.59629 23.812C2.37752 22.1849 2.375 20.04 2.375 17.0208C2.375 14.0017 2.37752 11.8568 2.59629 10.2297C2.81046 8.6367 3.2121 7.71893 3.88218 7.04885C4.55226 6.37876 5.47004 5.97712 7.06301 5.76295C8.69015 5.54419 10.835 5.54167 13.8542 5.54167H17.0208C17.6767 5.54167 18.2083 5.01 18.2083 4.35417C18.2083 3.69833 17.6767 3.16667 17.0208 3.16667L13.7648 3.16667Z" fill="white"/>
<path d="M10.6875 18.6042C11.562 18.6042 12.2708 17.8953 12.2708 17.0208C12.2708 16.1464 11.562 15.4375 10.6875 15.4375C9.81305 15.4375 9.10417 16.1464 9.10417 17.0208C9.10417 17.8953 9.81305 18.6042 10.6875 18.6042Z" fill="white"/>
<path d="M18.6042 17.0208C18.6042 17.8953 17.8953 18.6042 17.0208 18.6042C16.1464 18.6042 15.4375 17.8953 15.4375 17.0208C15.4375 16.1464 16.1464 15.4375 17.0208 15.4375C17.8953 15.4375 18.6042 16.1464 18.6042 17.0208Z" fill="white"/>
</svg>
